<svg width="256" height="256" viewBox="0 0 256 256" fill="none" xmlns="http://www.w3.org/2000/svg">
<path d="M186.66 225.965H166.412V220.01H186.66V225.965Z" fill="url(#paint0_linear_1_2)"/>
<path d="M177.131 215.246H156.883V209.29H177.131V215.246Z" fill="url(#paint1_linear_1_2)"/>
<path d="M186.66 202.144H172.367V196.188H186.66V202.144Z" fill="url(#paint2_linear_1_2)"/>
<path d="M200.953 202.144H193.806V196.188H200.953V202.144Z" fill="url(#paint3_linear_1_2)"/>
<path d="M209.29 184.278H171.176V178.322H209.29V184.278Z" fill="url(#paint4_linear_1_2)"/>
<path d="M172.367 173.558H161.648V167.603H172.367V173.558Z" fill="url(#paint5_linear_1_2)"/>
<path d="M196.188 173.558H181.896V167.603H196.188V173.558Z" fill="url(#paint6_linear_1_2)"/>
<path d="M77.0818 222.392H59.2158V216.437H77.0818V222.392Z" fill="url(#paint7_linear_1_2)"/>
<path d="M72.3176 206.908H44.9231V200.953H72.3176V206.908Z" fill="url(#paint8_linear_1_2)"/>
<path d="M44.9231 190.233H28.2481V184.278H44.9231V190.233Z" fill="url(#paint9_linear_1_2)"/>
<path d="M83.0372 190.233H53.2605V184.278H83.0372V190.233Z" fill="url(#paint10_linear_1_2)"/>
<path d="M52.0694 175.94H41.3499V169.985H52.0694V175.94Z" fill="url(#paint11_linear_1_2)"/>
<path d="M66.3622 160.456H8V154.501H66.3622V160.456Z" fill="url(#paint12_linear_1_2)"/>
<path d="M35.3945 142.59H18.7196V136.635H35.3945V142.59Z" fill="url(#paint13_linear_1_2)"/>
<path d="M66.3622 127.107H34.2035V121.151H66.3622V127.107Z" fill="url(#paint14_linear_1_2)"/>
<path d="M27.0571 118.769H9.19107V112.814H27.0571V118.769Z" fill="url(#paint15_linear_1_2)"/>
<path d="M71.1265 111.623H34.2035V105.667H71.1265V111.623Z" fill="url(#paint16_linear_1_2)"/>
<path d="M40.1588 94.9478H15.1464V88.9925H40.1588V94.9478Z" fill="url(#paint17_linear_1_2)"/>
<path d="M87.8014 75.8908H84.2282V81.8461H30.6303V75.8908H66.3622V71.1265H87.8014V75.8908Z" fill="url(#paint18_linear_1_2)"/>
<path d="M67.5533 65.1712H46.1141V59.2158H67.5533V65.1712Z" fill="url(#paint19_linear_1_2)"/>
<path d="M94.9478 65.1712H73.5086V59.2158H94.9478V65.1712Z" fill="url(#paint20_linear_1_2)"/>
<path d="M63.9801 54.4516H30.6303V48.4962H63.9801V54.4516Z" fill="url(#paint21_linear_1_2)"/>
<path d="M66.3622 42.5409H54.4516V36.5856H66.3622V42.5409Z" fill="url(#paint22_linear_1_2)"/>
<path d="M150.332 209.886C149.737 224.179 144.973 237.28 128.893 248C134.253 241.449 135.444 222.987 128.893 212.863C122.342 202.739 103.881 185.469 120.556 159.861C133.896 139.375 157.28 143.583 166.412 148.546C153.456 151.868 150.313 162.888 155.097 171.772C159.265 179.514 166.391 184.095 175.345 187.255C171.772 191.424 159.265 190.233 156.883 189.638C165.221 198.571 162.243 219.414 155.692 225.965V209.886H150.332Z" fill="url(#paint23_linear_1_2)"/>
<path d="M137.826 175.345C137.231 194.997 150.332 191.824 150.332 209.886H155.692C155.097 194.402 144.973 183.682 137.826 175.345Z" fill="#C71467"/>
<path d="M124.724 66.9578C122.938 59.2158 151.523 26.4615 171.176 21.6973C168.992 29.429 162.243 71.1265 162.243 79.464L124.724 66.9578Z" fill="url(#paint24_linear_1_2)"/>
<path fill-rule="evenodd" clip-rule="evenodd" d="M103.382 220.559C115.194 228.713 125.053 235.519 128.893 248C129.003 247.83 129.114 247.657 129.228 247.481C134.678 239.027 144.572 223.68 125.32 199.762C116.387 188.663 117.578 169.389 126.511 160.456C139.822 147.145 158.67 147.325 169.985 149.737C206.313 157.479 224.774 143.186 228.347 126.511C226.375 123.444 220.599 121.263 213.794 118.694C202.102 114.28 187.371 108.719 183.682 95.5434C179.514 80.655 167.603 60.4069 129.489 55.6426C129.264 52.5413 121.747 19.3151 114.6 8C106.858 12.7643 80.655 52.665 75.8908 81.8461C66.3622 86.0148 50.8784 100.308 47.3052 111.027H62.789C53.2605 121.747 46.1141 137.826 46.1141 154.501L58.0247 142.59C56.8337 162.839 62.4209 180.794 71.1265 192.02C81.5961 205.52 93.213 213.539 103.382 220.559ZM104.476 81.8461C103.881 78.2729 103.881 68.7444 105.667 65.1712C108.645 68.7444 114.6 71.722 119.365 71.722C114.005 62.1935 109.241 42.5409 110.432 30.0347C103.285 34.2035 88.397 65.1712 104.476 81.8461ZM170.581 109.241C164.03 92.5657 148.774 92.5657 139.017 95.5434C143.502 96.8887 146.129 99.3315 148.774 101.791C153.155 105.864 157.585 109.983 170.581 109.241Z" fill="url(#paint25_linear_1_2)"/>
<path d="M155.692 123.534C174.787 128.838 194.827 138.866 206.134 149.411C197.007 152.367 185.028 152.943 169.985 149.737C158.67 147.326 139.822 147.146 126.511 160.457C117.578 169.39 116.387 188.663 125.32 199.762C144.571 223.68 134.678 239.026 129.228 247.48C129.115 247.656 129.002 247.83 128.893 248L129.094 247.332C137.205 219.2 97.8835 205.526 92.5655 181.3C91.1368 174.792 91.4817 163.745 97.2172 153.31H69.3399V147.355H101.182C104.505 143.177 108.89 139.281 114.6 136.04H94.3521C95.9078 134.555 97.6566 133.162 99.5666 131.871H85.4193V126.024H111.027C124.486 120.906 141.297 119.535 155.692 123.534Z" fill="url(#paint26_linear_1_2)"/>
<path d="M223.583 137.231C221.796 137.231 210.481 134.253 210.481 124.724C212.268 124.129 225.965 122.938 228.347 126.511C227.156 131.275 225.37 134.849 223.583 137.231Z" fill="#0F0E21"/>
<path d="M78.2729 160.456C75.8908 174.749 79.556 182.1 86.0148 193.806C94.4908 209.169 115.244 219.348 119.2 232.728C114.765 228.417 109.32 224.659 103.382 220.56C93.2125 213.54 81.5961 205.52 71.1265 192.02C65.0926 184.239 60.557 173.226 58.7378 160.456H78.2729Z" fill="url(#paint27_linear_1_2)"/>
<path d="M93.7568 99.7121C84.8238 104.476 74.1042 116.983 72.9131 120.556H55.8288C56.3905 119.62 56.9688 118.705 57.5653 117.812C61.3743 112.56 68.8382 103.131 74.6997 99.7121H93.7568Z" fill="url(#paint28_linear_1_2)"/>
<defs>
<linearGradient id="paint0_linear_1_2" x1="209.29" y1="197.38" x2="153.906" y2="188.447" gradientUnits="userSpaceOnUse">
<stop stop-color="#880979"/>
<stop offset="1" stop-color="#0F0E21"/>
</linearGradient>
<linearGradient id="paint1_linear_1_2" x1="209.29" y1="197.38" x2="153.906" y2="188.447" gradientUnits="userSpaceOnUse">
<stop stop-color="#880979"/>
<stop offset="1" stop-color="#0F0E21"/>
</linearGradient>
<linearGradient id="paint2_linear_1_2" x1="209.29" y1="197.38" x2="153.906" y2="188.447" gradientUnits="userSpaceOnUse">
<stop stop-color="#880979"/>
<stop offset="1" stop-color="#0F0E21"/>
</linearGradient>
<linearGradient id="paint3_linear_1_2" x1="209.29" y1="197.38" x2="153.906" y2="188.447" gradientUnits="userSpaceOnUse">
<stop stop-color="#880979"/>
<stop offset="1" stop-color="#0F0E21"/>
</linearGradient>
<linearGradient id="paint4_linear_1_2" x1="209.29" y1="197.38" x2="153.906" y2="188.447" gradientUnits="userSpaceOnUse">
<stop stop-color="#880979"/>
<stop offset="1" stop-color="#0F0E21"/>
</linearGradient>
<linearGradient id="paint5_linear_1_2" x1="209.29" y1="197.38" x2="153.906" y2="188.447" gradientUnits="userSpaceOnUse">
<stop stop-color="#880979"/>
<stop offset="1" stop-color="#0F0E21"/>
</linearGradient>
<linearGradient id="paint6_linear_1_2" x1="209.29" y1="197.38" x2="153.906" y2="188.447" gradientUnits="userSpaceOnUse">
<stop stop-color="#880979"/>
<stop offset="1" stop-color="#0F0E21"/>
</linearGradient>
<linearGradient id="paint7_linear_1_2" x1="71.1265" y1="144.377" x2="10.3821" y2="163.434" gradientUnits="userSpaceOnUse">
<stop stop-color="#880979"/>
<stop offset="1" stop-color="#300985"/>
</linearGradient>
<linearGradient id="paint8_linear_1_2" x1="71.1265" y1="144.377" x2="10.3821" y2="163.434" gradientUnits="userSpaceOnUse">
<stop stop-color="#880979"/>
<stop offset="1" stop-color="#300985"/>
</linearGradient>
<linearGradient id="paint9_linear_1_2" x1="71.1265" y1="144.377" x2="10.3821" y2="163.434" gradientUnits="userSpaceOnUse">
<stop stop-color="#880979"/>
<stop offset="1" stop-color="#300985"/>
</linearGradient>
<linearGradient id="paint10_linear_1_2" x1="71.1265" y1="144.377" x2="10.3821" y2="163.434" gradientUnits="userSpaceOnUse">
<stop stop-color="#880979"/>
<stop offset="1" stop-color="#300985"/>
</linearGradient>
<linearGradient id="paint11_linear_1_2" x1="71.1265" y1="144.377" x2="10.3821" y2="163.434" gradientUnits="userSpaceOnUse">
<stop stop-color="#880979"/>
<stop offset="1" stop-color="#300985"/>
</linearGradient>
<linearGradient id="paint12_linear_1_2" x1="71.1265" y1="144.377" x2="10.3821" y2="163.434" gradientUnits="userSpaceOnUse">
<stop stop-color="#880979"/>
<stop offset="1" stop-color="#300985"/>
</linearGradient>
<linearGradient id="paint13_linear_1_2" x1="71.1265" y1="144.377" x2="10.3821" y2="163.434" gradientUnits="userSpaceOnUse">
<stop stop-color="#880979"/>
<stop offset="1" stop-color="#300985"/>
</linearGradient>
<linearGradient id="paint14_linear_1_2" x1="71.1265" y1="144.377" x2="10.3821" y2="163.434" gradientUnits="userSpaceOnUse">
<stop stop-color="#880979"/>
<stop offset="1" stop-color="#300985"/>
</linearGradient>
<linearGradient id="paint15_linear_1_2" x1="71.1265" y1="144.377" x2="10.3821" y2="163.434" gradientUnits="userSpaceOnUse">
<stop stop-color="#880979"/>
<stop offset="1" stop-color="#300985"/>
</linearGradient>
<linearGradient id="paint16_linear_1_2" x1="71.1265" y1="144.377" x2="10.3821" y2="163.434" gradientUnits="userSpaceOnUse">
<stop stop-color="#880979"/>
<stop offset="1" stop-color="#300985"/>
</linearGradient>
<linearGradient id="paint17_linear_1_2" x1="84.2282" y1="66.3622" x2="11.5732" y2="66.3622" gradientUnits="userSpaceOnUse">
<stop stop-color="#300985"/>
<stop offset="1" stop-color="#0F0E21"/>
</linearGradient>
<linearGradient id="paint18_linear_1_2" x1="84.2282" y1="66.3622" x2="11.5732" y2="66.3622" gradientUnits="userSpaceOnUse">
<stop stop-color="#300985"/>
<stop offset="1" stop-color="#0F0E21"/>
</linearGradient>
<linearGradient id="paint19_linear_1_2" x1="84.2282" y1="66.3622" x2="11.5732" y2="66.3622" gradientUnits="userSpaceOnUse">
<stop stop-color="#300985"/>
<stop offset="1" stop-color="#0F0E21"/>
</linearGradient>
<linearGradient id="paint20_linear_1_2" x1="84.2282" y1="66.3622" x2="11.5732" y2="66.3622" gradientUnits="userSpaceOnUse">
<stop stop-color="#300985"/>
<stop offset="1" stop-color="#0F0E21"/>
</linearGradient>
<linearGradient id="paint21_linear_1_2" x1="84.2282" y1="66.3622" x2="11.5732" y2="66.3622" gradientUnits="userSpaceOnUse">
<stop stop-color="#300985"/>
<stop offset="1" stop-color="#0F0E21"/>
</linearGradient>
<linearGradient id="paint22_linear_1_2" x1="84.2282" y1="66.3622" x2="11.5732" y2="66.3622" gradientUnits="userSpaceOnUse">
<stop stop-color="#300985"/>
<stop offset="1" stop-color="#0F0E21"/>
</linearGradient>
<linearGradient id="paint23_linear_1_2" x1="136.635" y1="147.355" x2="144.973" y2="206.313" gradientUnits="userSpaceOnUse">
<stop stop-color="#0F0E21"/>
<stop offset="1" stop-color="#C71467"/>
</linearGradient>
<linearGradient id="paint24_linear_1_2" x1="164.625" y1="24.6749" x2="147.355" y2="66.9578" gradientUnits="userSpaceOnUse">
<stop stop-color="#880979"/>
<stop offset="1" stop-color="#0F0E21"/>
</linearGradient>
<linearGradient id="paint25_linear_1_2" x1="231.325" y1="128.298" x2="60.4069" y2="91.3746" gradientUnits="userSpaceOnUse">
<stop stop-color="#C71467"/>
<stop offset="0.533011" stop-color="#880979"/>
<stop offset="1" stop-color="#300985"/>
</linearGradient>
<linearGradient id="paint26_linear_1_2" x1="108.05" y1="131.871" x2="228.943" y2="167.603" gradientUnits="userSpaceOnUse">
<stop stop-color="#880979"/>
<stop offset="1" stop-color="#C71467"/>
</linearGradient>
<linearGradient id="paint27_linear_1_2" x1="99.7121" y1="125.916" x2="26.4615" y2="166.412" gradientUnits="userSpaceOnUse">
<stop stop-color="#0F0E21" stop-opacity="0.4"/>
<stop offset="1" stop-opacity="0"/>
</linearGradient>
<linearGradient id="paint28_linear_1_2" x1="99.7121" y1="125.916" x2="26.4615" y2="166.412" gradientUnits="userSpaceOnUse">
<stop stop-color="#0F0E21" stop-opacity="0.4"/>
<stop offset="1" stop-opacity="0"/>
</linearGradient>
</defs>
</svg>
