<svg xmlns="http://www.w3.org/2000/svg" version="1.1" xmlns:xlink="http://www.w3.org/1999/xlink" width="1000" height="1000"><style>
    #light-icon {
      display: inline;
    }
    #dark-icon {
      display: none;
    }

    @media (prefers-color-scheme: dark) {
      #light-icon {
        display: none;
      }
      #dark-icon {
        display: inline;
      }
    }
  </style><g id="light-icon"><svg xmlns="http://www.w3.org/2000/svg" version="1.1" xmlns:xlink="http://www.w3.org/1999/xlink" width="1000" height="1000"><g clip-path="url(#SvgjsClipPath1114)"><rect width="1000" height="1000" fill="#121212"></rect><g transform="matrix(3.515625,0,0,3.515625,50,50)"><svg xmlns="http://www.w3.org/2000/svg" version="1.1" xmlns:xlink="http://www.w3.org/1999/xlink" width="256" height="256"><svg xmlns="http://www.w3.org/2000/svg" fill="none" viewBox="0 0 256 256">
  <path fill="url(#a)" d="M186.7 226h-20.3v-6h20.3z"></path>
  <path fill="url(#b)" d="M177.1 215.2H157v-6h20z"></path>
  <path fill="url(#c)" d="M186.7 202.1h-14.3v-6h14.3z"></path>
  <path fill="url(#d)" d="M201 202.1h-7.2v-6h7.2z"></path>
  <path fill="url(#e)" d="M209.3 184.3h-38.1v-6h38z"></path>
  <path fill="url(#f)" d="M172.4 173.6h-10.8v-6h10.8z"></path>
  <path fill="url(#g)" d="M196.2 173.6h-14.3v-6h14.3z"></path>
  <path fill="url(#h)" d="M77 222.4H59.3v-6h17.9z"></path>
  <path fill="url(#i)" d="M72.3 207H45v-6h27.4z"></path>
  <path fill="url(#j)" d="M45 190.2H28.1v-6H45z"></path>
  <path fill="url(#k)" d="M83 190.2H53.3v-6H83z"></path>
  <path fill="url(#l)" d="M52 176H41.4v-6h10.8z"></path>
  <path fill="url(#m)" d="M66.4 160.5H8v-6h58.4z"></path>
  <path fill="url(#n)" d="M35.4 143.6H18.7v-6h16.7z"></path>
  <path fill="url(#o)" d="M66.4 127.1H34.2v-6h32.2z"></path>
  <path fill="url(#p)" d="M27 118.8H9.3v-6H27z"></path>
  <path fill="url(#q)" d="M71.1 111.6H34.2v-6h37z"></path>
  <path fill="url(#r)" d="M40.2 95h-25v-6h25z"></path>
  <path fill="url(#s)" d="M87.8 75.9h-3.6v6H30.6v-6h35.8V71h21.4z"></path>
  <path fill="url(#t)" d="M67.6 65.2H46v-6h21.5z"></path>
  <path fill="url(#u)" d="M95 65.2H73.4v-6H95z"></path>
  <path fill="url(#v)" d="M64 54.5H30.6v-6H64z"></path>
  <path fill="url(#w)" d="M66.4 42.5h-12v-6h12z"></path>
  <path fill="url(#x)" d="M150.3 209.9A44 44 0 0 1 129 248c5.4-6.6 6.5-25 0-35.1s-25-27.4-8.3-53c13.3-20.5 36.7-16.3 45.8-11.4-13 3.4-16 14.4-11.3 23.3a34 34 0 0 0 20.2 15.5c-3.5 4.1-16 3-18.4 2.3 8.3 9 5.3 29.8-1.2 36.4v-16.1z"></path>
  <path fill="#c71467" d="M137.8 175.3c-.6 19.7 12.5 16.5 12.5 34.6h5.4c-.6-15.5-10.7-26.2-17.9-34.6"></path>
  <path fill="url(#y)" d="M124.7 67c-1.8-7.8 26.8-40.5 46.5-45.3-2.2 7.7-9 49.4-9 57.8z"></path>
  <path fill="url(#z)" fill-rule="evenodd" d="M103.4 220.6c11.8 8.1 21.7 15 25.5 27.4l.3-.5c5.5-8.5 15.4-23.8-3.9-47.7-9-11.1-7.7-30.4 1.2-39.3 13.3-13.4 32.2-13.2 43.5-10.8 36.3 7.8 54.8-6.5 58.3-23.2-2-3-7.7-5.2-14.5-7.8-11.7-4.4-26.4-10-30.1-23.2-4.2-14.8-16.1-35-54.2-39.9-.2-3-7.8-36.3-14.9-47.6-7.7 4.8-34 44.7-38.7 73.8-9.5 4.2-25 18.5-28.6 29.2h15.5A68 68 0 0 0 46 154.5l12-12A75 75 0 0 0 71 192c10.5 13.5 22.1 21.5 32.3 28.6m1-138.8c-.5-3.5-.5-13 1.3-16.6 3 3.5 8.9 6.5 13.7 6.5a87 87 0 0 1-9-41.7c-7.1 4.2-22 35.2-6 51.8m66.2 27.4C164 92.6 148.8 92.6 139 95.5c4.5 1.4 7.1 3.8 9.8 6.3 4.4 4 8.8 8.2 21.8 7.4" clip-rule="evenodd"></path>
  <path fill="url(#A)" d="M109 154.5v6H76v-6z"></path>
  <path fill="url(#B)" d="M120 144H80v-6h40z"></path>
  <path fill="url(#C)" d="M114 132H74v-6h40z"></path>
  <path fill="url(#D)" d="M75 144h-9v-6h9z"></path>
  <path fill="url(#E)" fill-rule="evenodd" d="M155.7 123.5c19 5.3 39.1 15.4 50.4 26-9 2.9-21 3.4-36.1.2-11.3-2.4-30.2-2.6-43.5 10.8-9 8.9-10.1 28.2-1.2 39.3 19.3 23.9 9.4 39.2 4 47.7l-.4.5.2-.7c4.7-16.3-6.6-27.8-18-39.3-8.1-8.3-16.3-16.6-18.5-26.7-4-18 6.5-36.5 22-45.3H94.4c15.3-14.6 41.9-17.9 61.3-12.5" clip-rule="evenodd"></path>
  <path fill="#0f0e21" d="M223.6 137.2c-1.8 0-13.1-3-13.1-12.5 1.8-.6 15.5-1.8 17.8 1.8-1.1 4.8-3 8.3-4.7 10.7"></path>
  <path fill="url(#F)" d="M78.3 160.5c-2.4 14.2 1.3 21.6 7.7 33.3 8.5 15.4 29.2 25.5 33.2 39-4.4-4.4-9.9-8.1-15.8-12.2A133 133 0 0 1 71 192a68 68 0 0 1-12.4-31.5z"></path>
  <path fill="url(#G)" d="M93.8 99.7a62 62 0 0 0-20.9 20.9H56l1.7-2.8a76 76 0 0 1 17.1-18z"></path>
  <defs>
    <linearGradient id="a" x1="209.3" x2="153.9" y1="197.4" y2="188.4" gradientUnits="userSpaceOnUse">
      <stop stop-color="#880979"></stop>
      <stop offset="1" stop-color="#0f0e21"></stop>
    </linearGradient>
    <linearGradient id="b" x1="209.3" x2="153.9" y1="197.4" y2="188.4" gradientUnits="userSpaceOnUse">
      <stop stop-color="#880979"></stop>
      <stop offset="1" stop-color="#0f0e21"></stop>
    </linearGradient>
    <linearGradient id="c" x1="209.3" x2="153.9" y1="197.4" y2="188.4" gradientUnits="userSpaceOnUse">
      <stop stop-color="#880979"></stop>
      <stop offset="1" stop-color="#0f0e21"></stop>
    </linearGradient>
    <linearGradient id="d" x1="209.3" x2="153.9" y1="197.4" y2="188.4" gradientUnits="userSpaceOnUse">
      <stop stop-color="#880979"></stop>
      <stop offset="1" stop-color="#0f0e21"></stop>
    </linearGradient>
    <linearGradient id="e" x1="209.3" x2="153.9" y1="197.4" y2="188.4" gradientUnits="userSpaceOnUse">
      <stop stop-color="#880979"></stop>
      <stop offset="1" stop-color="#0f0e21"></stop>
    </linearGradient>
    <linearGradient id="f" x1="209.3" x2="153.9" y1="197.4" y2="188.4" gradientUnits="userSpaceOnUse">
      <stop stop-color="#880979"></stop>
      <stop offset="1" stop-color="#0f0e21"></stop>
    </linearGradient>
    <linearGradient id="g" x1="209.3" x2="153.9" y1="197.4" y2="188.4" gradientUnits="userSpaceOnUse">
      <stop stop-color="#880979"></stop>
      <stop offset="1" stop-color="#0f0e21"></stop>
    </linearGradient>
    <linearGradient id="h" x1="71.1" x2="10.4" y1="144.4" y2="163.4" gradientUnits="userSpaceOnUse">
      <stop stop-color="#880979"></stop>
      <stop offset="1" stop-color="#300985"></stop>
    </linearGradient>
    <linearGradient id="i" x1="71.1" x2="10.4" y1="144.4" y2="163.4" gradientUnits="userSpaceOnUse">
      <stop stop-color="#880979"></stop>
      <stop offset="1" stop-color="#300985"></stop>
    </linearGradient>
    <linearGradient id="j" x1="71.1" x2="10.4" y1="144.4" y2="163.4" gradientUnits="userSpaceOnUse">
      <stop stop-color="#880979"></stop>
      <stop offset="1" stop-color="#300985"></stop>
    </linearGradient>
    <linearGradient id="k" x1="71.1" x2="10.4" y1="144.4" y2="163.4" gradientUnits="userSpaceOnUse">
      <stop stop-color="#880979"></stop>
      <stop offset="1" stop-color="#300985"></stop>
    </linearGradient>
    <linearGradient id="l" x1="71.1" x2="10.4" y1="144.4" y2="163.4" gradientUnits="userSpaceOnUse">
      <stop stop-color="#880979"></stop>
      <stop offset="1" stop-color="#300985"></stop>
    </linearGradient>
    <linearGradient id="m" x1="71.1" x2="10.4" y1="144.4" y2="163.4" gradientUnits="userSpaceOnUse">
      <stop stop-color="#880979"></stop>
      <stop offset="1" stop-color="#300985"></stop>
    </linearGradient>
    <linearGradient id="n" x1="71.1" x2="10.4" y1="144.4" y2="163.4" gradientUnits="userSpaceOnUse">
      <stop stop-color="#880979"></stop>
      <stop offset="1" stop-color="#300985"></stop>
    </linearGradient>
    <linearGradient id="o" x1="71.1" x2="10.4" y1="144.4" y2="163.4" gradientUnits="userSpaceOnUse">
      <stop stop-color="#880979"></stop>
      <stop offset="1" stop-color="#300985"></stop>
    </linearGradient>
    <linearGradient id="p" x1="71.1" x2="10.4" y1="144.4" y2="163.4" gradientUnits="userSpaceOnUse">
      <stop stop-color="#880979"></stop>
      <stop offset="1" stop-color="#300985"></stop>
    </linearGradient>
    <linearGradient id="q" x1="71.1" x2="10.4" y1="144.4" y2="163.4" gradientUnits="userSpaceOnUse">
      <stop stop-color="#880979"></stop>
      <stop offset="1" stop-color="#300985"></stop>
    </linearGradient>
    <linearGradient id="r" x1="84.2" x2="11.6" y1="66.4" y2="66.4" gradientUnits="userSpaceOnUse">
      <stop stop-color="#300985"></stop>
      <stop offset="1" stop-color="#0f0e21"></stop>
    </linearGradient>
    <linearGradient id="s" x1="84.2" x2="11.6" y1="66.4" y2="66.4" gradientUnits="userSpaceOnUse">
      <stop stop-color="#300985"></stop>
      <stop offset="1" stop-color="#0f0e21"></stop>
    </linearGradient>
    <linearGradient id="t" x1="84.2" x2="11.6" y1="66.4" y2="66.4" gradientUnits="userSpaceOnUse">
      <stop stop-color="#300985"></stop>
      <stop offset="1" stop-color="#0f0e21"></stop>
    </linearGradient>
    <linearGradient id="u" x1="84.2" x2="11.6" y1="66.4" y2="66.4" gradientUnits="userSpaceOnUse">
      <stop stop-color="#300985"></stop>
      <stop offset="1" stop-color="#0f0e21"></stop>
    </linearGradient>
    <linearGradient id="v" x1="84.2" x2="11.6" y1="66.4" y2="66.4" gradientUnits="userSpaceOnUse">
      <stop stop-color="#300985"></stop>
      <stop offset="1" stop-color="#0f0e21"></stop>
    </linearGradient>
    <linearGradient id="w" x1="84.2" x2="11.6" y1="66.4" y2="66.4" gradientUnits="userSpaceOnUse">
      <stop stop-color="#300985"></stop>
      <stop offset="1" stop-color="#0f0e21"></stop>
    </linearGradient>
    <linearGradient id="x" x1="136.6" x2="145" y1="147.4" y2="206.3" gradientUnits="userSpaceOnUse">
      <stop stop-color="#0f0e21"></stop>
      <stop offset="1" stop-color="#c71467"></stop>
    </linearGradient>
    <linearGradient id="y" x1="164.6" x2="147.4" y1="24.7" y2="67" gradientUnits="userSpaceOnUse">
      <stop stop-color="#880979"></stop>
      <stop offset="1" stop-color="#0f0e21"></stop>
    </linearGradient>
    <linearGradient id="z" x1="231.3" x2="60.4" y1="128.3" y2="91.4" gradientUnits="userSpaceOnUse">
      <stop stop-color="#c71467"></stop>
      <stop offset=".5" stop-color="#880979"></stop>
      <stop offset="1" stop-color="#300985"></stop>
    </linearGradient>
    <linearGradient id="A" x1="81" x2="113.5" y1="130" y2="144" gradientUnits="userSpaceOnUse">
      <stop stop-color="#c71467"></stop>
      <stop offset=".3" stop-color="#880979"></stop>
      <stop offset="1" stop-color="#0f0e21"></stop>
    </linearGradient>
    <linearGradient id="B" x1="81" x2="113.5" y1="130" y2="144" gradientUnits="userSpaceOnUse">
      <stop stop-color="#c71467"></stop>
      <stop offset=".3" stop-color="#880979"></stop>
      <stop offset="1" stop-color="#0f0e21"></stop>
    </linearGradient>
    <linearGradient id="C" x1="81" x2="113.5" y1="130" y2="144" gradientUnits="userSpaceOnUse">
      <stop stop-color="#c71467"></stop>
      <stop offset=".3" stop-color="#880979"></stop>
      <stop offset="1" stop-color="#0f0e21"></stop>
    </linearGradient>
    <linearGradient id="D" x1="81" x2="113.5" y1="130" y2="144" gradientUnits="userSpaceOnUse">
      <stop stop-color="#c71467"></stop>
      <stop offset=".3" stop-color="#880979"></stop>
      <stop offset="1" stop-color="#0f0e21"></stop>
    </linearGradient>
    <linearGradient id="E" x1="108" x2="228.9" y1="131.9" y2="167.6" gradientUnits="userSpaceOnUse">
      <stop stop-color="#880979"></stop>
      <stop offset="1" stop-color="#c71467"></stop>
    </linearGradient>
    <linearGradient id="F" x1="99.7" x2="26.5" y1="125.9" y2="166.4" gradientUnits="userSpaceOnUse">
      <stop stop-color="#0f0e21" stop-opacity=".4"></stop>
      <stop offset="1" stop-opacity="0"></stop>
    </linearGradient>
    <linearGradient id="G" x1="99.7" x2="26.5" y1="125.9" y2="166.4" gradientUnits="userSpaceOnUse">
      <stop stop-color="#0f0e21" stop-opacity=".4"></stop>
      <stop offset="1" stop-opacity="0"></stop>
    </linearGradient>
  <clipPath id="SvgjsClipPath1114"><rect width="1000" height="1000" x="0" y="0" rx="500" ry="500"></rect></clipPath></defs>
</svg></svg></g></g></svg></g><g id="dark-icon"><svg xmlns="http://www.w3.org/2000/svg" version="1.1" xmlns:xlink="http://www.w3.org/1999/xlink" width="1000" height="1000"><g clip-path="url(#SvgjsClipPath1115)"><rect width="1000" height="1000" fill="#121212"></rect><g transform="matrix(3.515625,0,0,3.515625,50,50)"><svg xmlns="http://www.w3.org/2000/svg" version="1.1" xmlns:xlink="http://www.w3.org/1999/xlink" width="256" height="256"><svg xmlns="http://www.w3.org/2000/svg" fill="none" viewBox="0 0 256 256">
  <path fill="url(#a)" d="M186.7 226h-20.3v-6h20.3z"></path>
  <path fill="url(#b)" d="M177.1 215.2H157v-6h20z"></path>
  <path fill="url(#c)" d="M186.7 202.1h-14.3v-6h14.3z"></path>
  <path fill="url(#d)" d="M201 202.1h-7.2v-6h7.2z"></path>
  <path fill="url(#e)" d="M209.3 184.3h-38.1v-6h38z"></path>
  <path fill="url(#f)" d="M172.4 173.6h-10.8v-6h10.8z"></path>
  <path fill="url(#g)" d="M196.2 173.6h-14.3v-6h14.3z"></path>
  <path fill="url(#h)" d="M77 222.4H59.3v-6h17.9z"></path>
  <path fill="url(#i)" d="M72.3 207H45v-6h27.4z"></path>
  <path fill="url(#j)" d="M45 190.2H28.1v-6H45z"></path>
  <path fill="url(#k)" d="M83 190.2H53.3v-6H83z"></path>
  <path fill="url(#l)" d="M52 176H41.4v-6h10.8z"></path>
  <path fill="url(#m)" d="M66.4 160.5H8v-6h58.4z"></path>
  <path fill="url(#n)" d="M35.4 143.6H18.7v-6h16.7z"></path>
  <path fill="url(#o)" d="M66.4 127.1H34.2v-6h32.2z"></path>
  <path fill="url(#p)" d="M27 118.8H9.3v-6H27z"></path>
  <path fill="url(#q)" d="M71.1 111.6H34.2v-6h37z"></path>
  <path fill="url(#r)" d="M40.2 95h-25v-6h25z"></path>
  <path fill="url(#s)" d="M87.8 75.9h-3.6v6H30.6v-6h35.8V71h21.4z"></path>
  <path fill="url(#t)" d="M67.6 65.2H46v-6h21.5z"></path>
  <path fill="url(#u)" d="M95 65.2H73.4v-6H95z"></path>
  <path fill="url(#v)" d="M64 54.5H30.6v-6H64z"></path>
  <path fill="url(#w)" d="M66.4 42.5h-12v-6h12z"></path>
  <path fill="url(#x)" d="M150.3 209.9A44 44 0 0 1 129 248c5.4-6.6 6.5-25 0-35.1s-25-27.4-8.3-53c13.3-20.5 36.7-16.3 45.8-11.4-13 3.4-16 14.4-11.3 23.3a34 34 0 0 0 20.2 15.5c-3.5 4.1-16 3-18.4 2.3 8.3 9 5.3 29.8-1.2 36.4v-16.1z"></path>
  <path fill="#c71467" d="M137.8 175.3c-.6 19.7 12.5 16.5 12.5 34.6h5.4c-.6-15.5-10.7-26.2-17.9-34.6"></path>
  <path fill="url(#y)" d="M124.7 67c-1.8-7.8 26.8-40.5 46.5-45.3-2.2 7.7-9 49.4-9 57.8z"></path>
  <path fill="url(#z)" fill-rule="evenodd" d="M103.4 220.6c11.8 8.1 21.7 15 25.5 27.4l.3-.5c5.5-8.5 15.4-23.8-3.9-47.7-9-11.1-7.7-30.4 1.2-39.3 13.3-13.4 32.2-13.2 43.5-10.8 36.3 7.8 54.8-6.5 58.3-23.2-2-3-7.7-5.2-14.5-7.8-11.7-4.4-26.4-10-30.1-23.2-4.2-14.8-16.1-35-54.2-39.9-.2-3-7.8-36.3-14.9-47.6-7.7 4.8-34 44.7-38.7 73.8-9.5 4.2-25 18.5-28.6 29.2h15.5A68 68 0 0 0 46 154.5l12-12A75 75 0 0 0 71 192c10.5 13.5 22.1 21.5 32.3 28.6m1-138.8c-.5-3.5-.5-13 1.3-16.6 3 3.5 8.9 6.5 13.7 6.5a87 87 0 0 1-9-41.7c-7.1 4.2-22 35.2-6 51.8m66.2 27.4C164 92.6 148.8 92.6 139 95.5c4.5 1.4 7.1 3.8 9.8 6.3 4.4 4 8.8 8.2 21.8 7.4" clip-rule="evenodd"></path>
  <path fill="url(#A)" d="M109 154.5v6H76v-6z"></path>
  <path fill="url(#B)" d="M120 144H80v-6h40z"></path>
  <path fill="url(#C)" d="M114 132H74v-6h40z"></path>
  <path fill="url(#D)" d="M75 144h-9v-6h9z"></path>
  <path fill="url(#E)" fill-rule="evenodd" d="M155.7 123.5c19 5.3 39.1 15.4 50.4 26-9 2.9-21 3.4-36.1.2-11.3-2.4-30.2-2.6-43.5 10.8-9 8.9-10.1 28.2-1.2 39.3 19.3 23.9 9.4 39.2 4 47.7l-.4.5.2-.7c4.7-16.3-6.6-27.8-18-39.3-8.1-8.3-16.3-16.6-18.5-26.7-4-18 6.5-36.5 22-45.3H94.4c15.3-14.6 41.9-17.9 61.3-12.5" clip-rule="evenodd"></path>
  <path fill="#0f0e21" d="M223.6 137.2c-1.8 0-13.1-3-13.1-12.5 1.8-.6 15.5-1.8 17.8 1.8-1.1 4.8-3 8.3-4.7 10.7"></path>
  <path fill="url(#F)" d="M78.3 160.5c-2.4 14.2 1.3 21.6 7.7 33.3 8.5 15.4 29.2 25.5 33.2 39-4.4-4.4-9.9-8.1-15.8-12.2A133 133 0 0 1 71 192a68 68 0 0 1-12.4-31.5z"></path>
  <path fill="url(#G)" d="M93.8 99.7a62 62 0 0 0-20.9 20.9H56l1.7-2.8a76 76 0 0 1 17.1-18z"></path>
  <defs>
    <linearGradient id="a" x1="209.3" x2="153.9" y1="197.4" y2="188.4" gradientUnits="userSpaceOnUse">
      <stop stop-color="#880979"></stop>
      <stop offset="1" stop-color="#0f0e21"></stop>
    </linearGradient>
    <linearGradient id="b" x1="209.3" x2="153.9" y1="197.4" y2="188.4" gradientUnits="userSpaceOnUse">
      <stop stop-color="#880979"></stop>
      <stop offset="1" stop-color="#0f0e21"></stop>
    </linearGradient>
    <linearGradient id="c" x1="209.3" x2="153.9" y1="197.4" y2="188.4" gradientUnits="userSpaceOnUse">
      <stop stop-color="#880979"></stop>
      <stop offset="1" stop-color="#0f0e21"></stop>
    </linearGradient>
    <linearGradient id="d" x1="209.3" x2="153.9" y1="197.4" y2="188.4" gradientUnits="userSpaceOnUse">
      <stop stop-color="#880979"></stop>
      <stop offset="1" stop-color="#0f0e21"></stop>
    </linearGradient>
    <linearGradient id="e" x1="209.3" x2="153.9" y1="197.4" y2="188.4" gradientUnits="userSpaceOnUse">
      <stop stop-color="#880979"></stop>
      <stop offset="1" stop-color="#0f0e21"></stop>
    </linearGradient>
    <linearGradient id="f" x1="209.3" x2="153.9" y1="197.4" y2="188.4" gradientUnits="userSpaceOnUse">
      <stop stop-color="#880979"></stop>
      <stop offset="1" stop-color="#0f0e21"></stop>
    </linearGradient>
    <linearGradient id="g" x1="209.3" x2="153.9" y1="197.4" y2="188.4" gradientUnits="userSpaceOnUse">
      <stop stop-color="#880979"></stop>
      <stop offset="1" stop-color="#0f0e21"></stop>
    </linearGradient>
    <linearGradient id="h" x1="71.1" x2="10.4" y1="144.4" y2="163.4" gradientUnits="userSpaceOnUse">
      <stop stop-color="#880979"></stop>
      <stop offset="1" stop-color="#300985"></stop>
    </linearGradient>
    <linearGradient id="i" x1="71.1" x2="10.4" y1="144.4" y2="163.4" gradientUnits="userSpaceOnUse">
      <stop stop-color="#880979"></stop>
      <stop offset="1" stop-color="#300985"></stop>
    </linearGradient>
    <linearGradient id="j" x1="71.1" x2="10.4" y1="144.4" y2="163.4" gradientUnits="userSpaceOnUse">
      <stop stop-color="#880979"></stop>
      <stop offset="1" stop-color="#300985"></stop>
    </linearGradient>
    <linearGradient id="k" x1="71.1" x2="10.4" y1="144.4" y2="163.4" gradientUnits="userSpaceOnUse">
      <stop stop-color="#880979"></stop>
      <stop offset="1" stop-color="#300985"></stop>
    </linearGradient>
    <linearGradient id="l" x1="71.1" x2="10.4" y1="144.4" y2="163.4" gradientUnits="userSpaceOnUse">
      <stop stop-color="#880979"></stop>
      <stop offset="1" stop-color="#300985"></stop>
    </linearGradient>
    <linearGradient id="m" x1="71.1" x2="10.4" y1="144.4" y2="163.4" gradientUnits="userSpaceOnUse">
      <stop stop-color="#880979"></stop>
      <stop offset="1" stop-color="#300985"></stop>
    </linearGradient>
    <linearGradient id="n" x1="71.1" x2="10.4" y1="144.4" y2="163.4" gradientUnits="userSpaceOnUse">
      <stop stop-color="#880979"></stop>
      <stop offset="1" stop-color="#300985"></stop>
    </linearGradient>
    <linearGradient id="o" x1="71.1" x2="10.4" y1="144.4" y2="163.4" gradientUnits="userSpaceOnUse">
      <stop stop-color="#880979"></stop>
      <stop offset="1" stop-color="#300985"></stop>
    </linearGradient>
    <linearGradient id="p" x1="71.1" x2="10.4" y1="144.4" y2="163.4" gradientUnits="userSpaceOnUse">
      <stop stop-color="#880979"></stop>
      <stop offset="1" stop-color="#300985"></stop>
    </linearGradient>
    <linearGradient id="q" x1="71.1" x2="10.4" y1="144.4" y2="163.4" gradientUnits="userSpaceOnUse">
      <stop stop-color="#880979"></stop>
      <stop offset="1" stop-color="#300985"></stop>
    </linearGradient>
    <linearGradient id="r" x1="84.2" x2="11.6" y1="66.4" y2="66.4" gradientUnits="userSpaceOnUse">
      <stop stop-color="#300985"></stop>
      <stop offset="1" stop-color="#0f0e21"></stop>
    </linearGradient>
    <linearGradient id="s" x1="84.2" x2="11.6" y1="66.4" y2="66.4" gradientUnits="userSpaceOnUse">
      <stop stop-color="#300985"></stop>
      <stop offset="1" stop-color="#0f0e21"></stop>
    </linearGradient>
    <linearGradient id="t" x1="84.2" x2="11.6" y1="66.4" y2="66.4" gradientUnits="userSpaceOnUse">
      <stop stop-color="#300985"></stop>
      <stop offset="1" stop-color="#0f0e21"></stop>
    </linearGradient>
    <linearGradient id="u" x1="84.2" x2="11.6" y1="66.4" y2="66.4" gradientUnits="userSpaceOnUse">
      <stop stop-color="#300985"></stop>
      <stop offset="1" stop-color="#0f0e21"></stop>
    </linearGradient>
    <linearGradient id="v" x1="84.2" x2="11.6" y1="66.4" y2="66.4" gradientUnits="userSpaceOnUse">
      <stop stop-color="#300985"></stop>
      <stop offset="1" stop-color="#0f0e21"></stop>
    </linearGradient>
    <linearGradient id="w" x1="84.2" x2="11.6" y1="66.4" y2="66.4" gradientUnits="userSpaceOnUse">
      <stop stop-color="#300985"></stop>
      <stop offset="1" stop-color="#0f0e21"></stop>
    </linearGradient>
    <linearGradient id="x" x1="136.6" x2="145" y1="147.4" y2="206.3" gradientUnits="userSpaceOnUse">
      <stop stop-color="#0f0e21"></stop>
      <stop offset="1" stop-color="#c71467"></stop>
    </linearGradient>
    <linearGradient id="y" x1="164.6" x2="147.4" y1="24.7" y2="67" gradientUnits="userSpaceOnUse">
      <stop stop-color="#880979"></stop>
      <stop offset="1" stop-color="#0f0e21"></stop>
    </linearGradient>
    <linearGradient id="z" x1="231.3" x2="60.4" y1="128.3" y2="91.4" gradientUnits="userSpaceOnUse">
      <stop stop-color="#c71467"></stop>
      <stop offset=".5" stop-color="#880979"></stop>
      <stop offset="1" stop-color="#300985"></stop>
    </linearGradient>
    <linearGradient id="A" x1="81" x2="113.5" y1="130" y2="144" gradientUnits="userSpaceOnUse">
      <stop stop-color="#c71467"></stop>
      <stop offset=".3" stop-color="#880979"></stop>
      <stop offset="1" stop-color="#0f0e21"></stop>
    </linearGradient>
    <linearGradient id="B" x1="81" x2="113.5" y1="130" y2="144" gradientUnits="userSpaceOnUse">
      <stop stop-color="#c71467"></stop>
      <stop offset=".3" stop-color="#880979"></stop>
      <stop offset="1" stop-color="#0f0e21"></stop>
    </linearGradient>
    <linearGradient id="C" x1="81" x2="113.5" y1="130" y2="144" gradientUnits="userSpaceOnUse">
      <stop stop-color="#c71467"></stop>
      <stop offset=".3" stop-color="#880979"></stop>
      <stop offset="1" stop-color="#0f0e21"></stop>
    </linearGradient>
    <linearGradient id="D" x1="81" x2="113.5" y1="130" y2="144" gradientUnits="userSpaceOnUse">
      <stop stop-color="#c71467"></stop>
      <stop offset=".3" stop-color="#880979"></stop>
      <stop offset="1" stop-color="#0f0e21"></stop>
    </linearGradient>
    <linearGradient id="E" x1="108" x2="228.9" y1="131.9" y2="167.6" gradientUnits="userSpaceOnUse">
      <stop stop-color="#880979"></stop>
      <stop offset="1" stop-color="#c71467"></stop>
    </linearGradient>
    <linearGradient id="F" x1="99.7" x2="26.5" y1="125.9" y2="166.4" gradientUnits="userSpaceOnUse">
      <stop stop-color="#0f0e21" stop-opacity=".4"></stop>
      <stop offset="1" stop-opacity="0"></stop>
    </linearGradient>
    <linearGradient id="G" x1="99.7" x2="26.5" y1="125.9" y2="166.4" gradientUnits="userSpaceOnUse">
      <stop stop-color="#0f0e21" stop-opacity=".4"></stop>
      <stop offset="1" stop-opacity="0"></stop>
    </linearGradient>
  <clipPath id="SvgjsClipPath1115"><rect width="1000" height="1000" x="0" y="0" rx="500" ry="500"></rect></clipPath></defs>
</svg></svg></g></g></svg></g></svg>